<svg width="52" height="47" viewBox="0 0 52 47" fill="none" xmlns="http://www.w3.org/2000/svg">
<path fill-rule="evenodd" clip-rule="evenodd" d="M11.4511 4.04716C14.2631 2.31158 17.426 1.09845 20.7572 0.477733C24.0885 -0.142981 27.5222 -0.158987 30.8603 0.430638C34.1984 1.02026 37.3748 2.20385 40.2063 3.91312C43.0379 5.62239 45.4684 7.82352 47.3579 10.3895C49.2473 12.9556 50.5581 15.8357 51.2149 18.8638C51.8716 21.8918 51.8611 25.008 51.1841 28.0324C50.5071 31.0567 49.1769 33.9296 47.2703 36.4851C45.3637 39.0406 42.9184 41.2283 40.0755 42.9219C34.3949 46.367 27.4389 47.6232 20.7378 46.4141C14.0366 45.205 8.13918 41.6296 4.34287 36.4745C0.546552 31.3194 -0.837682 25.0068 0.494683 18.9255C1.82705 12.8442 5.76687 7.49232 11.4474 4.04716H11.4511ZM13.4973 40.1466C15.908 41.6248 18.6169 42.6561 21.4683 43.1812C24.3196 43.7062 27.2572 43.7148 30.1122 43.2063C32.9672 42.6978 35.6833 41.6822 38.1045 40.2181C40.5256 38.7539 42.604 36.8699 44.2202 34.6744C45.8365 32.479 46.9586 30.0153 47.5223 27.425C48.086 24.8347 48.08 22.1688 47.5047 19.5806C46.9293 16.9924 45.7961 14.5329 44.17 12.3434C42.5439 10.1539 40.457 8.27769 38.0293 6.8225C33.1595 3.90347 27.2144 2.85276 21.4934 3.90003C15.7724 4.9473 10.741 8.00738 7.49896 12.4113C4.25691 16.8153 3.06794 22.205 4.19194 27.4022C5.31594 32.5993 8.6615 37.1813 13.4973 40.1466ZM20.2431 20.1448C20.2431 21.0305 19.8553 21.88 19.1652 22.5063C18.475 23.1327 17.5389 23.4845 16.5629 23.4845C15.5868 23.4845 14.6508 23.1327 13.9606 22.5063C13.2704 21.88 12.8827 21.0305 12.8827 20.1448C12.8827 19.259 13.2704 18.4095 13.9606 17.7832C14.6508 17.1569 15.5868 16.805 16.5629 16.805C17.5389 16.805 18.475 17.1569 19.1652 17.7832C19.8553 18.4095 20.2431 19.259 20.2431 20.1448ZM38.6439 20.1448C38.6439 21.0305 38.2562 21.88 37.566 22.5063C36.8759 23.1327 35.9398 23.4845 34.9637 23.4845C33.9877 23.4845 33.0516 23.1327 32.3615 22.5063C31.6713 21.88 31.2836 21.0305 31.2836 20.1448C31.2836 19.259 31.6713 18.4095 32.3615 17.7832C33.0516 17.1569 33.9877 16.805 34.9637 16.805C35.9398 16.805 36.8759 17.1569 37.566 17.7832C38.2562 18.4095 38.6439 19.259 38.6439 20.1448ZM25.7633 33.5038C23.7635 33.5082 21.8 33.0197 20.0823 32.0903C18.3647 31.1609 16.9574 29.8256 16.0109 28.227L12.8091 29.8301C14.0977 31.9941 16.0197 33.7933 18.3632 35.0292C20.7067 36.2652 23.3807 36.89 26.0906 36.8347C28.8004 36.7795 31.4408 36.0463 33.7208 34.716C36.0008 33.3858 37.8318 31.5101 39.0119 29.2957L35.6998 27.8596C34.7945 29.5521 33.3824 30.9791 31.6252 31.9773C29.8679 32.9755 27.8364 33.5045 25.7633 33.5038Z" fill="white"/>
</svg>
