<svg width="20" height="20" viewBox="0 0 20 20" fill="none" xmlns="http://www.w3.org/2000/svg">
<path fill-rule="evenodd" clip-rule="evenodd" d="M4.42986 1.72723C5.51768 0.986527 6.74123 0.46879 8.02992 0.203885C9.31861 -0.0610207 10.6469 -0.0678517 11.9383 0.183786C13.2296 0.435423 14.4584 0.940548 15.5538 1.67002C16.6492 2.3995 17.5894 3.33889 18.3203 4.434C19.0513 5.52911 19.5584 6.75828 19.8124 8.05059C20.0665 9.3429 20.0624 10.6728 19.8005 11.9635C19.5386 13.2543 19.024 14.4803 18.2865 15.571C17.5489 16.6616 16.603 17.5952 15.5032 18.318C13.3057 19.7883 10.6147 20.3244 8.02239 19.8084C5.43005 19.2924 3.14864 17.7665 1.68003 15.5664C0.211433 13.3663 -0.324057 10.6723 0.191368 8.07695C0.706792 5.4816 2.23091 3.19754 4.42843 1.72723H4.42986ZM5.22142 17.1336C6.15401 17.7644 7.20194 18.2046 8.30499 18.4287C9.40803 18.6528 10.5444 18.6564 11.6489 18.4394C12.7533 18.2224 13.8041 17.789 14.7407 17.1641C15.6773 16.5392 16.4813 15.7352 17.1066 14.7982C17.7318 13.8612 18.1659 12.8098 18.384 11.7043C18.602 10.5988 18.5997 9.4611 18.3771 8.35651C18.1546 7.25193 17.7162 6.20227 17.0871 5.26786C16.4581 4.33345 15.6508 3.53272 14.7116 2.91167C12.8277 1.66591 10.5279 1.21749 8.3147 1.66444C6.10155 2.11139 4.15515 3.41735 2.90097 5.29686C1.64678 7.17637 1.18683 9.47654 1.62165 11.6946C2.05647 13.9126 3.35069 15.8681 5.22142 17.1336ZM7.83101 8.5973C7.83101 8.97532 7.68101 9.33785 7.41402 9.60515C7.14703 9.87245 6.78492 10.0226 6.40734 10.0226C6.02976 10.0226 5.66764 9.87245 5.40065 9.60515C5.13366 9.33785 4.98366 8.97532 4.98366 8.5973C4.98366 8.21928 5.13366 7.85674 5.40065 7.58944C5.66764 7.32214 6.02976 7.17197 6.40734 7.17197C6.78492 7.17197 7.14703 7.32214 7.41402 7.58944C7.68101 7.85674 7.83101 8.21928 7.83101 8.5973ZM14.9494 8.5973C14.9494 8.97532 14.7994 9.33785 14.5324 9.60515C14.2654 9.87245 13.9033 10.0226 13.5257 10.0226C13.1481 10.0226 12.786 9.87245 12.519 9.60515C12.252 9.33785 12.102 8.97532 12.102 8.5973C12.102 8.21928 12.252 7.85674 12.519 7.58944C12.786 7.32214 13.1481 7.17197 13.5257 7.17197C13.9033 7.17197 14.2654 7.32214 14.5324 7.58944C14.7994 7.85674 14.9494 8.21928 14.9494 8.5973ZM9.96652 14.2986C9.1929 14.3005 8.4333 14.092 7.76883 13.6954C7.10435 13.2987 6.55996 12.7288 6.19379 12.0466L4.95519 12.7307C5.45369 13.6543 6.1972 14.4221 7.10379 14.9496C8.01037 15.4771 9.04482 15.7438 10.0931 15.7202C11.1414 15.6966 12.1629 15.3837 13.0449 14.816C13.9269 14.2482 14.6352 13.4477 15.0917 12.5027L13.8104 11.8898C13.4602 12.6121 12.914 13.2211 12.2342 13.6471C11.5544 14.0731 10.7685 14.2989 9.96652 14.2986Z" fill="#353535"/>
</svg>
